<mxfile host="app.diagrams.net" modified="2023-05-10T03:04:02.225Z" agent="Mozilla/5.0 (Macintosh; Intel Mac OS X 10_15_7) AppleWebKit/537.36 (KHTML, like Gecko) Chrome/113.0.0.0 Safari/537.36" version="21.2.9" etag="YMDX2xk8UzgofvSmpjpx" type="github">
  <diagram name="Page-1" id="LjcIb68eJYRCBkhZzlHT">
    <mxGraphModel>
      <root>
        <mxCell id="0" />
        <mxCell id="1" parent="0" />
      </root>
    </mxGraphModel>
  </diagram>
</mxfile>
